<?xml version="1.0" encoding="utf-8"?>
<!-- Generator: Adobe Illustrator 22.0.0, SVG Export Plug-In . SVG Version: 6.00 Build 0)  -->
<svg version="1.1" id="图层_1" xmlns="http://www.w3.org/2000/svg" xmlns:xlink="http://www.w3.org/1999/xlink" x="0px" y="0px"
	 viewBox="0 0 48 48" style="enable-background:new 0 0 48 48;" xml:space="preserve">
<style type="text/css">
	.st0{fill:#A2A1A1;}
</style>
<path id="形状_2" class="st0" d="M38.8,48H10.2C6.8,48,4,45.3,4,41.9V13.5c0-3.4,2.8-6.1,6.2-6.1H14V2.9h4.2
	C19.3,1.1,21.7,0,24.5,0s5.2,1.1,6.3,2.9H35v4.5h3.9c3.4,0,6.2,2.7,6.2,6.1v28.4C45,45.3,42.2,48,38.8,48z M31.2,6.6h-3.4l-0.2-1.7
	c0-0.3-1.1-1.2-3.1-1.2s-3.1,0.9-3.1,1.2l-0.1,1.7h-3.4v4.8h13.5V6.6z M41.3,13.5c0-1.3-1.1-2.4-2.4-2.4H35v4H14v-4h-3.9
	c-1.3,0-2.4,1.1-2.4,2.4v28.4c0,1.3,1.1,2.4,2.4,2.4h28.6c1.3,0,2.4-1.1,2.4-2.4C41.3,41.9,41.3,13.5,41.3,13.5z M34.3,38.6H14.7
	c-1,0-1.9-0.8-1.9-1.8c0-1,0.8-1.9,1.8-1.9c0,0,0.1,0,0.1,0h19.6c1,0,1.9,0.8,1.9,1.8s-0.8,1.9-1.8,1.9
	C34.4,38.6,34.4,38.6,34.3,38.6z M34.3,31.2H14.7c-1,0-1.9-0.8-1.9-1.8c0-1,0.8-1.9,1.8-1.9c0,0,0.1,0,0.1,0h19.6
	c1,0,1.9,0.8,1.9,1.8c0,1-0.8,1.9-1.8,1.9C34.4,31.2,34.4,31.2,34.3,31.2L34.3,31.2z M34.3,23.7H14.7c-1,0-1.9-0.8-1.9-1.8
	c0-1,0.8-1.9,1.8-1.9c0,0,0.1,0,0.1,0h19.6c1,0,1.9,0.8,1.9,1.8c0,1-0.8,1.9-1.8,1.9C34.4,23.7,34.4,23.7,34.3,23.7L34.3,23.7z"/>
</svg>
