<?xml version="1.0" encoding="utf-8"?>
<!-- Generator: Adobe Illustrator 22.0.0, SVG Export Plug-In . SVG Version: 6.00 Build 0)  -->
<svg version="1.1" id="图层_1" xmlns="http://www.w3.org/2000/svg" xmlns:xlink="http://www.w3.org/1999/xlink" x="0px" y="0px"
	 viewBox="0 0 48 48" style="enable-background:new 0 0 48 48;" xml:space="preserve">
<style type="text/css">
	.st0{fill:#1AAD19;}
</style>
<path id="形状_1" class="st0" d="M44.2,46h-2.1v-3.9H46v2.2C46,45.2,45.2,46,44.2,46z M34.4,34.2h-3.9V46h-2.1
	c-1,0-1.8-0.8-1.8-1.8V28.3c0-1,0.8-1.8,1.8-1.8h9.9v7.8h3.9v-7.8h2.2c1,0,1.8,0.8,1.8,1.8v9.9H34.4V34.2z M44.2,22.5H28.3
	c-1,0-1.8-0.8-1.8-1.8V4.8c0-1,0.8-1.8,1.8-1.8h15.9c1,0,1.8,0.8,1.8,1.8v15.9C46,21.7,45.2,22.5,44.2,22.5z M42.1,6.9H30.4v11.7
	h11.6V6.9z M36.1,10.9c0.5,0,1,0.2,1.3,0.5c0.4,0.4,0.6,0.8,0.5,1.3c0,0.5-0.2,1-0.5,1.3c-0.4,0.4-0.8,0.6-1.3,0.5
	c-0.5,0-1-0.2-1.3-0.5c-0.4-0.4-0.6-0.8-0.5-1.3c0-0.5,0.2-1,0.5-1.3C35.2,11.1,35.6,10.9,36.1,10.9L36.1,10.9z M20.7,46H4.8
	c-1,0-1.8-0.8-1.8-1.8V28.3c0-1,0.8-1.8,1.8-1.8h15.9c1,0,1.8,0.8,1.8,1.8v15.9C22.5,45.2,21.7,46,20.7,46z M18.6,30.4H6.9v11.7
	h11.6C18.6,42.1,18.6,30.4,18.6,30.4z M12.7,34.4c0.5,0,1,0.2,1.3,0.5c0.4,0.4,0.6,0.8,0.5,1.3c0,0.5-0.2,1-0.5,1.3
	c-0.4,0.4-0.8,0.6-1.3,0.5c-0.5,0-1-0.2-1.3-0.5c-0.4-0.4-0.6-0.8-0.5-1.3c0-0.5,0.2-1,0.5-1.3C11.7,34.5,12.2,34.3,12.7,34.4z
	 M20.7,22.5H4.8c-1,0-1.8-0.8-1.8-1.8V4.8C3,3.8,3.8,3,4.8,3h15.9c1,0,1.8,0.8,1.8,1.8v15.9C22.5,21.7,21.7,22.5,20.7,22.5
	L20.7,22.5z M18.6,6.9H6.9v11.7h11.6V6.9z M12.7,10.9c0.5,0,1,0.2,1.3,0.5c0.4,0.4,0.6,0.8,0.5,1.3c0,0.5-0.2,1-0.5,1.3
	c-0.4,0.4-0.8,0.6-1.3,0.5c-0.5,0-1-0.2-1.3-0.5c-0.4-0.4-0.6-0.8-0.5-1.3c0-0.5,0.2-1,0.5-1.3C11.7,11.1,12.2,10.9,12.7,10.9z
	 M38.3,46h-3.9v-3.9h3.9V46z"/>
</svg>
